<svg width="661" height="234" viewBox="0 0 661 234" fill="none" xmlns="http://www.w3.org/2000/svg">
<path d="M115.261 0C51.604 0 0 52.3827 0 117C0 180.828 50.3516 232.719 112.935 233.977C84.2412 219.373 64.546 189.241 64.546 154.44C64.546 105.331 103.765 65.52 152.144 65.52C186.428 65.52 216.112 85.5125 230.498 114.639C229.26 51.1114 178.14 0 115.261 0Z" fill="white"/>
<path d="M0 117C0 52.3827 51.604 0 115.261 0C149.822 0 180.83 15.4408 201.955 39.8971C186.148 32.3182 168.481 28.08 149.839 28.08C82.3628 28.08 27.6626 83.6056 27.6626 152.1C27.6626 171.023 31.8377 188.957 39.304 205.003C15.2112 183.558 0 152.082 0 117Z" fill="white"/>
<path d="M201.955 39.8971C186.148 32.3182 168.481 28.08 149.839 28.08C82.3628 28.08 27.6625 83.6056 27.6625 152.1C27.6625 171.023 31.8377 188.957 39.304 205.003C59.0452 222.574 84.7494 233.41 112.935 233.977C84.2412 219.373 64.546 189.241 64.546 154.44C64.546 105.331 103.765 65.52 152.144 65.52C186.428 65.52 216.112 85.5125 230.498 114.639C229.94 86.0283 219.265 59.9362 201.955 39.8971Z" fill="white"/>
<path fill-rule="evenodd" clip-rule="evenodd" d="M193.638 196.56L154.449 196.56C132.806 196.56 115.261 178.75 115.261 156.78C115.261 134.81 132.806 117 154.449 117C176.093 117 193.638 134.81 193.638 156.78L193.638 196.56ZM78.3773 156.78C78.3773 114.133 112.436 79.56 154.449 79.56C196.463 79.56 230.521 114.133 230.521 156.78L230.521 234L154.449 234C112.436 234 78.3773 199.427 78.3773 156.78Z" fill="white"/>
<path d="M339.327 71.6547C342.288 71.6547 344.941 72.1116 347.288 73.0255C349.69 73.8822 351.952 75.253 354.075 77.1379L348.88 84.3345C347.427 83.1922 346.003 82.364 344.606 81.8499C343.266 81.3359 341.785 81.0789 340.165 81.0789C333.853 81.0789 330.697 86.048 330.697 95.9862C330.697 101.012 331.507 104.611 333.127 106.781C334.747 108.952 337.065 110.037 340.082 110.037C341.646 110.037 343.07 109.808 344.355 109.351C345.64 108.837 347.148 108.009 348.88 106.867L354.075 114.492C349.829 118.033 344.969 119.804 339.495 119.804C335.138 119.804 331.339 118.833 328.099 116.891C324.915 114.949 322.458 112.207 320.726 108.666C318.994 105.068 318.128 100.87 318.128 96.0719C318.128 91.2741 318.994 87.0475 320.726 83.3921C322.458 79.6795 324.915 76.7952 328.099 74.739C331.339 72.6828 335.082 71.6547 339.327 71.6547Z" fill="white"/>
<path d="M371.883 119.804C368.253 119.804 365.432 118.747 363.421 116.634C361.41 114.463 360.404 111.408 360.404 107.467V54.9482L372.302 53.5774V107.124C372.302 109.123 373.112 110.122 374.732 110.122C375.626 110.122 376.408 109.951 377.079 109.608L379.508 118.262C377.218 119.29 374.677 119.804 371.883 119.804Z" fill="white"/>
<path d="M419.143 105.839C419.143 107.609 419.394 108.923 419.897 109.78C420.4 110.579 421.238 111.179 422.411 111.579L419.897 119.632C417.272 119.404 415.121 118.776 413.445 117.748C411.825 116.719 410.568 115.12 409.675 112.95C406.77 117.519 402.329 119.804 396.352 119.804C391.939 119.804 388.42 118.519 385.794 115.948C383.225 113.321 381.94 109.923 381.94 105.753C381.94 100.784 383.699 96.9858 387.219 94.3584C390.738 91.7311 395.793 90.4174 402.385 90.4174H407.496V88.1899C407.496 85.3912 406.881 83.4492 405.653 82.364C404.424 81.2788 402.385 80.7362 399.536 80.7362C396.408 80.7362 392.497 81.5358 387.805 83.1351L385.124 74.996C390.654 72.7685 396.128 71.6547 401.547 71.6547C407.58 71.6547 412.021 72.9969 414.87 75.6814C417.718 78.3087 419.143 82.2498 419.143 87.5045V105.839ZM399.62 111.065C402.971 111.065 405.597 109.38 407.496 106.01V97.357H403.558C397.134 97.357 393.922 99.813 393.922 104.725C393.922 106.724 394.397 108.295 395.346 109.437C396.352 110.522 397.776 111.065 399.62 111.065Z" fill="white"/>
<path d="M444.96 71.6547C451.216 71.6547 456.579 73.4824 461.048 77.1379L456.523 84.0775C452.78 81.6786 449.093 80.4792 445.462 80.4792C443.507 80.4792 441.999 80.8504 440.938 81.5929C439.876 82.3354 439.346 83.335 439.346 84.5915C439.346 85.5054 439.569 86.2765 440.016 86.9047C440.519 87.533 441.412 88.1327 442.697 88.7039C444.038 89.2751 446.021 89.9605 448.646 90.7601C453.339 92.0738 456.83 93.8444 459.12 96.0719C461.411 98.2423 462.556 101.241 462.556 105.068C462.556 108.095 461.69 110.722 459.958 112.95C458.282 115.177 455.992 116.891 453.087 118.09C450.183 119.233 446.943 119.804 443.368 119.804C439.625 119.804 436.217 119.233 433.145 118.09C430.073 116.891 427.447 115.263 425.269 113.207L431.134 106.524C434.877 109.494 438.843 110.979 443.032 110.979C445.267 110.979 447.026 110.551 448.311 109.694C449.652 108.78 450.322 107.552 450.322 106.01C450.322 104.811 450.071 103.868 449.568 103.183C449.065 102.497 448.144 101.869 446.803 101.298C445.462 100.67 443.368 99.9558 440.519 99.1562C436.05 97.8996 432.726 96.129 430.548 93.8444C428.425 91.5026 427.364 88.6182 427.364 85.1912C427.364 82.621 428.09 80.3078 429.542 78.2516C430.994 76.1954 433.033 74.5962 435.659 73.4539C438.34 72.2544 441.44 71.6547 444.96 71.6547Z" fill="white"/>
<path d="M484.4 71.6547C490.657 71.6547 496.019 73.4824 500.488 77.1379L495.963 84.0775C492.221 81.6786 488.534 80.4792 484.903 80.4792C482.948 80.4792 481.44 80.8504 480.378 81.5929C479.317 82.3354 478.786 83.335 478.786 84.5915C478.786 85.5054 479.01 86.2765 479.457 86.9047C479.959 87.533 480.853 88.1327 482.138 88.7039C483.479 89.2751 485.462 89.9605 488.087 90.7601C492.779 92.0738 496.271 93.8444 498.561 96.0719C500.851 98.2423 501.996 101.241 501.996 105.068C501.996 108.095 501.131 110.722 499.399 112.95C497.723 115.177 495.433 116.891 492.528 118.09C489.623 119.233 486.383 119.804 482.808 119.804C479.066 119.804 475.658 119.233 472.586 118.09C469.513 116.891 466.888 115.263 464.709 113.207L470.575 106.524C474.317 109.494 478.284 110.979 482.473 110.979C484.708 110.979 486.467 110.551 487.752 109.694C489.093 108.78 489.763 107.552 489.763 106.01C489.763 104.811 489.512 103.868 489.009 103.183C488.506 102.497 487.584 101.869 486.244 101.298C484.903 100.67 482.808 99.9558 479.959 99.1562C475.491 97.8996 472.167 96.129 469.988 93.8444C467.866 91.5026 466.804 88.6182 466.804 85.1912C466.804 82.621 467.53 80.3078 468.983 78.2516C470.435 76.1954 472.474 74.5962 475.099 73.4539C477.781 72.2544 480.881 71.6547 484.4 71.6547Z" fill="white"/>
<path d="M521.647 73.0255V118.433H509.748V73.0255H521.647ZM515.614 49.6364C517.736 49.6364 519.468 50.3218 520.809 51.6926C522.205 53.0062 522.904 54.6912 522.904 56.7473C522.904 58.8035 522.205 60.517 520.809 61.8878C519.468 63.2015 517.736 63.8583 515.614 63.8583C513.491 63.8583 511.759 63.2015 510.419 61.8878C509.078 60.517 508.408 58.8035 508.408 56.7473C508.408 54.6912 509.078 53.0062 510.419 51.6926C511.759 50.3218 513.491 49.6364 515.614 49.6364Z" fill="white"/>
<path d="M551.914 71.6547C554.875 71.6547 557.528 72.1116 559.874 73.0255C562.276 73.8822 564.539 75.253 566.661 77.1379L561.466 84.3345C560.014 83.1922 558.589 82.364 557.193 81.8499C555.852 81.3359 554.372 81.0789 552.752 81.0789C546.44 81.0789 543.284 86.048 543.284 95.9862C543.284 101.012 544.094 104.611 545.714 106.781C547.334 108.952 549.652 110.037 552.668 110.037C554.232 110.037 555.657 109.808 556.942 109.351C558.226 108.837 559.735 108.009 561.466 106.867L566.661 114.492C562.416 118.033 557.556 119.804 552.082 119.804C547.725 119.804 543.926 118.833 540.686 116.891C537.502 114.949 535.044 112.207 533.313 108.666C531.581 105.068 530.715 100.87 530.715 96.0719C530.715 91.2741 531.581 87.0475 533.313 83.3921C535.044 79.6795 537.502 76.7952 540.686 74.739C543.926 72.6828 547.669 71.6547 551.914 71.6547Z" fill="white"/>
<path d="M339.327 147.81C342.288 147.81 344.941 148.267 347.288 149.181C349.69 150.037 351.952 151.408 354.075 153.293L348.88 160.49C347.427 159.347 346.003 158.519 344.606 158.005C343.266 157.491 341.785 157.234 340.165 157.234C333.853 157.234 330.697 162.203 330.697 172.141C330.697 177.167 331.507 180.766 333.127 182.936C334.747 185.107 337.065 186.192 340.082 186.192C341.646 186.192 343.07 185.963 344.355 185.506C345.64 184.992 347.148 184.164 348.88 183.022L354.075 190.647C349.829 194.188 344.969 195.959 339.495 195.959C335.138 195.959 331.339 194.988 328.099 193.046C324.915 191.104 322.458 188.362 320.726 184.821C318.994 181.223 318.128 177.025 318.128 172.227C318.128 167.429 318.994 163.203 320.726 159.547C322.458 155.835 324.915 152.95 328.099 150.894C331.339 148.838 335.082 147.81 339.327 147.81Z" fill="white"/>
<path d="M377.872 147.81C384.519 147.81 389.714 149.952 393.457 154.235C397.2 158.462 399.071 164.345 399.071 171.884C399.071 176.682 398.205 180.909 396.474 184.564C394.798 188.162 392.34 190.961 389.1 192.96C385.916 194.959 382.145 195.959 377.788 195.959C371.141 195.959 365.918 193.845 362.119 189.619C358.377 185.335 356.505 179.424 356.505 171.884C356.505 167.086 357.343 162.888 359.019 159.29C360.751 155.635 363.209 152.807 366.393 150.808C369.632 148.809 373.459 147.81 377.872 147.81ZM377.872 156.891C374.855 156.891 372.593 158.119 371.085 160.575C369.632 162.974 368.906 166.744 368.906 171.884C368.906 177.025 369.632 180.823 371.085 183.279C372.593 185.678 374.828 186.877 377.788 186.877C380.749 186.877 382.955 185.678 384.408 183.279C385.916 180.823 386.67 177.025 386.67 171.884C386.67 166.744 385.944 162.974 384.491 160.575C383.039 158.119 380.833 156.891 377.872 156.891Z" fill="white"/>
<path d="M456.131 147.81C459.651 147.81 462.471 149.038 464.594 151.494C466.773 153.95 467.862 157.291 467.862 161.518V194.588H455.964V163.574C455.964 159.119 454.511 156.891 451.607 156.891C450.043 156.891 448.674 157.405 447.501 158.433C446.328 159.461 445.127 161.061 443.898 163.231V194.588H432V163.574C432 159.119 430.547 156.891 427.642 156.891C426.078 156.891 424.71 157.434 423.537 158.519C422.364 159.547 421.191 161.118 420.017 163.231V194.588H408.119V149.181H418.425L419.347 154.835C421.023 152.55 422.894 150.808 424.961 149.609C427.084 148.409 429.514 147.81 432.251 147.81C434.765 147.81 436.943 148.467 438.787 149.78C440.63 151.037 441.971 152.836 442.809 155.178C444.652 152.722 446.635 150.894 448.758 149.695C450.936 148.438 453.394 147.81 456.131 147.81Z" fill="white"/>
<path d="M503.109 147.81C508.695 147.81 512.829 149.923 515.51 154.15C518.247 158.319 519.616 164.202 519.616 171.799C519.616 176.425 518.918 180.566 517.521 184.221C516.125 187.877 514.086 190.761 511.405 192.874C508.779 194.931 505.651 195.959 502.02 195.959C497.495 195.959 493.836 194.331 491.043 191.075V212.066L479.145 213.436V149.181H489.619L490.205 154.492C491.881 152.265 493.836 150.608 496.071 149.523C498.361 148.381 500.707 147.81 503.109 147.81ZM498.501 186.877C504.31 186.877 507.215 181.88 507.215 171.884C507.215 166.401 506.573 162.517 505.288 160.233C504.003 157.948 502.048 156.806 499.422 156.806C497.747 156.806 496.183 157.348 494.73 158.433C493.334 159.461 492.105 160.861 491.043 162.631V182.422C492.943 185.392 495.428 186.877 498.501 186.877Z" fill="white"/>
<path d="M562.177 181.994C562.177 183.764 562.428 185.078 562.931 185.935C563.433 186.734 564.271 187.334 565.444 187.734L562.931 195.787C560.305 195.559 558.155 194.931 556.479 193.903C554.859 192.874 553.602 191.275 552.708 189.105C549.803 193.674 545.363 195.959 539.385 195.959C534.972 195.959 531.453 194.674 528.828 192.103C526.258 189.476 524.973 186.078 524.973 181.908C524.973 176.939 526.733 173.141 530.252 170.513C533.771 167.886 538.827 166.572 545.418 166.572H550.53V164.345C550.53 161.546 549.915 159.604 548.686 158.519C547.457 157.434 545.418 156.891 542.57 156.891C539.441 156.891 535.531 157.691 530.839 159.29L528.157 151.151C533.688 148.923 539.162 147.81 544.58 147.81C550.613 147.81 555.054 149.152 557.903 151.836C560.752 154.464 562.177 158.405 562.177 163.659V181.994ZM542.653 187.22C546.005 187.22 548.63 185.535 550.53 182.165V173.512H546.591C540.167 173.512 536.956 175.968 536.956 180.88C536.956 182.879 537.43 184.45 538.38 185.592C539.385 186.677 540.81 187.22 542.653 187.22Z" fill="white"/>
<path d="M598.867 147.81C602.777 147.81 605.821 149.038 608 151.494C610.178 153.893 611.268 157.234 611.268 161.518V194.588H599.369V163.574C599.369 161.118 598.95 159.404 598.112 158.433C597.33 157.405 596.129 156.891 594.509 156.891C592.834 156.891 591.297 157.434 589.901 158.519C588.56 159.547 587.248 161.118 585.963 163.231V194.588H574.064V149.181H584.371L585.292 154.921C587.136 152.579 589.147 150.808 591.325 149.609C593.56 148.409 596.073 147.81 598.867 147.81Z" fill="white"/>
<path d="M644.972 194.674C643.184 200.442 640.363 204.897 636.509 208.039C632.71 211.18 627.543 212.979 621.008 213.436L619.751 204.698C623.996 204.126 627.096 203.098 629.052 201.613C631.063 200.128 632.71 197.786 633.995 194.588H629.889L616.064 149.181H628.716L637.598 186.706L646.983 149.181H659.3L644.972 194.674Z" fill="white"/>
<path d="M520.809 51.6926C519.468 50.3218 517.736 49.6364 515.614 49.6364C513.491 49.6364 511.759 50.3218 510.419 51.6926C509.078 53.0062 508.408 54.6912 508.408 56.7473C508.408 58.8035 509.078 60.517 510.419 61.8878C511.759 63.2015 513.491 63.8583 515.614 63.8583C517.736 63.8583 519.468 63.2015 520.809 61.8878C522.205 60.517 522.903 58.8035 522.903 56.7473C522.903 54.6912 522.205 53.0062 520.809 51.6926Z" fill="white"/>
</svg>
