<svg width="145" height="52" viewBox="0 0 145 52" fill="none" xmlns="http://www.w3.org/2000/svg">
<path d="M25.2841 0C11.3201 0 0 11.6406 0 26C0 40.1841 11.0453 51.7153 24.7738 51.9948C18.4795 48.7496 14.1591 42.0536 14.1591 34.32C14.1591 23.4069 22.7624 14.56 33.375 14.56C40.8957 14.56 47.4073 19.0028 50.5632 25.4753C50.2914 11.3581 39.0777 0 25.2841 0Z" fill="#0057FF"/>
<path d="M0 26C0 11.6406 11.3201 0 25.2841 0C32.8655 0 39.6676 3.43128 44.3019 8.86602C40.8342 7.18182 36.9587 6.24 32.8694 6.24C18.0675 6.24 6.06819 18.579 6.06819 33.8C6.06819 38.0052 6.98407 41.9904 8.6219 45.5562C3.3368 40.7908 0 33.7961 0 26Z" fill="url(#paint0_linear)"/>
<path d="M44.3019 8.86602C40.8343 7.18182 36.9588 6.24001 32.8694 6.24001C18.0675 6.24001 6.06824 18.579 6.06824 33.8C6.06824 38.0052 6.98413 41.9904 8.62196 45.5562C12.9525 49.4609 18.5911 51.8689 24.7739 51.9948C18.4796 48.7496 14.1592 42.0536 14.1592 34.32C14.1592 23.4069 22.7624 14.56 33.3751 14.56C40.8958 14.56 47.4073 19.0028 50.5632 25.4753C50.4408 19.1174 48.0991 13.3192 44.3019 8.86602Z" fill="url(#paint1_linear)"/>
<path fill-rule="evenodd" clip-rule="evenodd" d="M42.4774 43.68L33.8808 43.68C29.133 43.68 25.2842 39.7222 25.2842 34.84C25.2842 29.9578 29.133 26 33.8808 26C38.6285 26 42.4774 29.9578 42.4774 34.84L42.4774 43.68ZM17.1932 34.84C17.1932 25.3628 24.6645 17.68 33.8808 17.68C43.097 17.68 50.5683 25.3628 50.5683 34.84L50.5683 52L33.8808 52C24.6645 52 17.1932 44.3172 17.1932 34.84Z" fill="#FFD600"/>
<path d="M74.4365 15.9233C75.0859 15.9233 75.668 16.0248 76.1826 16.2279C76.7096 16.4183 77.2058 16.7229 77.6715 17.1417L76.5319 18.741C76.2133 18.4872 75.9008 18.3031 75.5945 18.1889C75.3004 18.0746 74.9756 18.0175 74.6203 18.0175C73.2356 18.0175 72.5432 19.1218 72.5432 21.3303C72.5432 22.4472 72.7209 23.2468 73.0763 23.7292C73.4317 24.2115 73.9402 24.4526 74.6019 24.4526C74.945 24.4526 75.2575 24.4019 75.5393 24.3003C75.8211 24.1861 76.152 24.002 76.5319 23.7482L77.6715 25.4426C76.7402 26.2296 75.6741 26.6231 74.4732 26.6231C73.5174 26.6231 72.6842 26.4073 71.9734 25.9757C71.275 25.5442 70.7358 24.9349 70.3559 24.148C69.9761 23.3484 69.7861 22.4155 69.7861 21.3493C69.7861 20.2831 69.9761 19.3439 70.3559 18.5316C70.7358 17.7066 71.275 17.0656 71.9734 16.6087C72.6842 16.1517 73.5052 15.9233 74.4365 15.9233Z" fill="#202E46"/>
<path d="M81.5781 26.6231C80.7816 26.6231 80.1628 26.3882 79.7217 25.9186C79.2805 25.4363 79.0599 24.7573 79.0599 23.8815V12.2107L81.67 11.9061V23.8053C81.67 24.2496 81.8477 24.4717 82.2031 24.4717C82.3991 24.4717 82.5707 24.4336 82.7177 24.3574L83.2508 26.2804C82.7484 26.5088 82.1908 26.6231 81.5781 26.6231Z" fill="#202E46"/>
<path d="M91.9451 23.5197C91.9451 23.9132 92.0003 24.2051 92.1106 24.3955C92.2209 24.5732 92.4047 24.7065 92.662 24.7953L92.1106 26.585C91.5346 26.5342 91.0629 26.3946 90.6953 26.1661C90.3399 25.9377 90.0642 25.5823 89.8681 25.1C89.2309 26.1154 88.2567 26.6231 86.9456 26.6231C85.9775 26.6231 85.2055 26.3375 84.6296 25.7663C84.0659 25.1825 83.7841 24.4272 83.7841 23.5007C83.7841 22.3964 84.1701 21.5524 84.9421 20.9685C85.7141 20.3847 86.823 20.0928 88.269 20.0928H89.3902V19.5977C89.3902 18.9758 89.2554 18.5443 88.9858 18.3031C88.7163 18.062 88.269 17.9414 87.644 17.9414C86.9578 17.9414 86.1001 18.1191 85.0707 18.4745L84.4826 16.6658C85.6957 16.1708 86.8966 15.9233 88.0852 15.9233C89.4086 15.9233 90.3828 16.2215 91.0077 16.8181C91.6327 17.4019 91.9451 18.2777 91.9451 19.4454V23.5197ZM87.6624 24.6811C88.3977 24.6811 88.9736 24.3067 89.3902 23.5578V21.6349H88.5263C87.1171 21.6349 86.4125 22.1807 86.4125 23.2722C86.4125 23.7165 86.5167 24.0655 86.725 24.3194C86.9456 24.5605 87.2581 24.6811 87.6624 24.6811Z" fill="#202E46"/>
<path d="M97.6084 15.9233C98.9809 15.9233 100.157 16.3294 101.138 17.1417L100.145 18.6839C99.324 18.1508 98.5152 17.8843 97.7187 17.8843C97.2898 17.8843 96.959 17.9668 96.7262 18.1318C96.4933 18.2968 96.3769 18.5189 96.3769 18.7981C96.3769 19.0012 96.4259 19.1725 96.524 19.3122C96.6343 19.4518 96.8303 19.5851 97.1121 19.712C97.4062 19.8389 97.8413 19.9912 98.4172 20.1689C99.4465 20.4608 100.212 20.8543 100.715 21.3493C101.217 21.8316 101.468 22.498 101.468 23.3484C101.468 24.0211 101.278 24.6049 100.899 25.1C100.531 25.595 100.029 25.9757 99.3914 26.2423C98.7542 26.4961 98.0434 26.6231 97.2592 26.6231C96.4382 26.6231 95.6907 26.4961 95.0167 26.2423C94.3428 25.9757 93.7669 25.614 93.289 25.1571L94.5756 23.672C95.3966 24.3321 96.2666 24.6621 97.1857 24.6621C97.6758 24.6621 98.0618 24.5669 98.3437 24.3765C98.6378 24.1734 98.7848 23.9005 98.7848 23.5578C98.7848 23.2913 98.7297 23.0818 98.6194 22.9295C98.5091 22.7772 98.3069 22.6376 98.0128 22.5107C97.7187 22.3711 97.2592 22.2124 96.6343 22.0347C95.6539 21.7555 94.9248 21.362 94.4469 20.8543C93.9813 20.3339 93.7485 19.6929 93.7485 18.9314C93.7485 18.3602 93.9078 17.8462 94.2264 17.3893C94.545 16.9323 94.9922 16.5769 95.5682 16.3231C96.1564 16.0565 96.8364 15.9233 97.6084 15.9233Z" fill="#202E46"/>
<path d="M106.26 15.9233C107.633 15.9233 108.809 16.3294 109.789 17.1417L108.797 18.6839C107.976 18.1508 107.167 17.8843 106.371 17.8843C105.942 17.8843 105.611 17.9668 105.378 18.1318C105.145 18.2968 105.029 18.5189 105.029 18.7981C105.029 19.0012 105.078 19.1725 105.176 19.3122C105.286 19.4518 105.482 19.5851 105.764 19.712C106.058 19.8389 106.493 19.9912 107.069 20.1689C108.098 20.4608 108.864 20.8543 109.367 21.3493C109.869 21.8316 110.12 22.498 110.12 23.3484C110.12 24.0211 109.93 24.6049 109.55 25.1C109.183 25.595 108.68 25.9757 108.043 26.2423C107.406 26.4961 106.695 26.6231 105.911 26.6231C105.09 26.6231 104.343 26.4961 103.669 26.2423C102.995 25.9757 102.419 25.614 101.941 25.1571L103.227 23.672C104.048 24.3321 104.919 24.6621 105.838 24.6621C106.328 24.6621 106.714 24.5669 106.996 24.3765C107.29 24.1734 107.437 23.9005 107.437 23.5578C107.437 23.2913 107.382 23.0818 107.271 22.9295C107.161 22.7772 106.959 22.6376 106.665 22.5107C106.371 22.3711 105.911 22.2124 105.286 22.0347C104.306 21.7555 103.577 21.362 103.099 20.8543C102.633 20.3339 102.4 19.6929 102.4 18.9314C102.4 18.3602 102.56 17.8462 102.878 17.3893C103.197 16.9323 103.644 16.5769 104.22 16.3231C104.808 16.0565 105.488 15.9233 106.26 15.9233Z" fill="#202E46"/>
<path d="M114.431 16.2279V26.3184H111.821V16.2279H114.431ZM113.107 11.0303C113.573 11.0303 113.953 11.1826 114.247 11.4872C114.553 11.7792 114.707 12.1536 114.707 12.6105C114.707 13.0675 114.553 13.4482 114.247 13.7528C113.953 14.0448 113.573 14.1907 113.107 14.1907C112.642 14.1907 112.262 14.0448 111.968 13.7528C111.674 13.4482 111.527 13.0675 111.527 12.6105C111.527 12.1536 111.674 11.7792 111.968 11.4872C112.262 11.1826 112.642 11.0303 113.107 11.0303Z" fill="#202E46"/>
<path d="M121.07 15.9233C121.72 15.9233 122.302 16.0248 122.817 16.2279C123.344 16.4183 123.84 16.7229 124.305 17.1417L123.166 18.741C122.847 18.4872 122.535 18.3031 122.228 18.1889C121.934 18.0746 121.61 18.0175 121.254 18.0175C119.87 18.0175 119.177 19.1218 119.177 21.3303C119.177 22.4472 119.355 23.2468 119.71 23.7292C120.066 24.2115 120.574 24.4526 121.236 24.4526C121.579 24.4526 121.891 24.4019 122.173 24.3003C122.455 24.1861 122.786 24.002 123.166 23.7482L124.305 25.4426C123.374 26.2296 122.308 26.6231 121.107 26.6231C120.151 26.6231 119.318 26.4073 118.607 25.9757C117.909 25.5442 117.37 24.9349 116.99 24.148C116.61 23.3484 116.42 22.4155 116.42 21.3493C116.42 20.2831 116.61 19.3439 116.99 18.5316C117.37 17.7066 117.909 17.0656 118.607 16.6087C119.318 16.1517 120.139 15.9233 121.07 15.9233Z" fill="#202E46"/>
<path d="M74.4365 32.8466C75.0859 32.8466 75.668 32.9482 76.1826 33.1512C76.7096 33.3416 77.2058 33.6462 77.6715 34.0651L76.5319 35.6643C76.2133 35.4105 75.9008 35.2265 75.5945 35.1122C75.3004 34.998 74.9756 34.9409 74.6203 34.9409C73.2356 34.9409 72.5432 36.0451 72.5432 38.2536C72.5432 39.3706 72.7209 40.1702 73.0763 40.6525C73.4317 41.1348 73.9402 41.376 74.6019 41.376C74.945 41.376 75.2575 41.3252 75.5393 41.2237C75.8211 41.1094 76.152 40.9254 76.5319 40.6715L77.6715 42.366C76.7402 43.1529 75.6741 43.5464 74.4732 43.5464C73.5174 43.5464 72.6842 43.3306 71.9734 42.8991C71.275 42.4675 70.7358 41.8583 70.3559 41.0714C69.9761 40.2717 69.7861 39.3388 69.7861 38.2727C69.7861 37.2065 69.9761 36.2672 70.3559 35.4549C70.7358 34.6299 71.275 33.9889 71.9734 33.532C72.6842 33.0751 73.5052 32.8466 74.4365 32.8466Z" fill="#202E46"/>
<path d="M82.8918 32.8466C84.35 32.8466 85.4896 33.3226 86.3106 34.2745C87.1316 35.2138 87.5421 36.5211 87.5421 38.1965C87.5421 39.2627 87.3522 40.2019 86.9723 41.0142C86.6047 41.8139 86.0655 42.4358 85.3548 42.88C84.6563 43.3243 83.8292 43.5464 82.8734 43.5464C81.4152 43.5464 80.2694 43.0768 79.4362 42.1375C78.6152 41.1856 78.2047 39.8719 78.2047 38.1965C78.2047 37.1303 78.3885 36.1974 78.7561 35.3978C79.136 34.5855 79.6751 33.9572 80.3736 33.513C81.0843 33.0687 81.9237 32.8466 82.8918 32.8466ZM82.8918 34.8647C82.2301 34.8647 81.7338 35.1376 81.4029 35.6834C81.0843 36.2165 80.925 37.0542 80.925 38.1965C80.925 39.3388 81.0843 40.1829 81.4029 40.7287C81.7338 41.2617 82.2239 41.5283 82.8734 41.5283C83.5228 41.5283 84.0069 41.2617 84.3255 40.7287C84.6563 40.1829 84.8217 39.3388 84.8217 38.1965C84.8217 37.0542 84.6624 36.2165 84.3438 35.6834C84.0252 35.1376 83.5412 34.8647 82.8918 34.8647Z" fill="#202E46"/>
<path d="M100.059 32.8466C100.831 32.8466 101.45 33.1195 101.916 33.6653C102.393 34.2111 102.632 34.9536 102.632 35.8928V43.2418H100.022V36.3497C100.022 35.3597 99.7037 34.8647 99.0665 34.8647C98.7234 34.8647 98.4232 34.979 98.1659 35.2074C97.9086 35.4359 97.6451 35.7913 97.3755 36.2736V43.2418H94.7654V36.3497C94.7654 35.3597 94.4468 34.8647 93.8096 34.8647C93.4665 34.8647 93.1663 34.9853 92.909 35.2265C92.6517 35.4549 92.3943 35.804 92.137 36.2736V43.2418H89.5269V33.1512H91.7878L91.99 34.4078C92.3576 33.9001 92.7681 33.513 93.2215 33.2464C93.6871 32.9799 94.2201 32.8466 94.8206 32.8466C95.372 32.8466 95.8499 32.9926 96.2543 33.2845C96.6587 33.5637 96.9528 33.9636 97.1366 34.4839C97.5409 33.9382 97.976 33.532 98.4416 33.2655C98.9195 32.9862 99.4587 32.8466 100.059 32.8466Z" fill="#202E46"/>
<path d="M110.364 32.8466C111.59 32.8466 112.497 33.3162 113.085 34.2555C113.685 35.182 113.985 36.4894 113.985 38.1775C113.985 39.2056 113.832 40.1258 113.526 40.9381C113.22 41.7504 112.772 42.3914 112.184 42.861C111.608 43.3179 110.922 43.5464 110.125 43.5464C109.133 43.5464 108.33 43.1847 107.718 42.4612V47.1257L105.107 47.4303V33.1512H107.405L107.534 34.3316C107.901 33.8366 108.33 33.4685 108.82 33.2274C109.323 32.9735 109.837 32.8466 110.364 32.8466ZM109.353 41.5283C110.628 41.5283 111.265 40.4177 111.265 38.1965C111.265 36.978 111.124 36.1149 110.842 35.6072C110.56 35.0995 110.132 34.8457 109.556 34.8457C109.188 34.8457 108.845 34.9663 108.526 35.2074C108.22 35.4359 107.95 35.7468 107.718 36.1403V40.5383C108.134 41.1983 108.679 41.5283 109.353 41.5283Z" fill="#202E46"/>
<path d="M123.322 40.4431C123.322 40.8365 123.377 41.1285 123.487 41.3189C123.597 41.4966 123.781 41.6298 124.039 41.7187L123.487 43.5083C122.911 43.4576 122.439 43.3179 122.072 43.0895C121.716 42.861 121.441 42.5056 121.245 42.0233C120.607 43.0387 119.633 43.5464 118.322 43.5464C117.354 43.5464 116.582 43.2608 116.006 42.6897C115.442 42.1058 115.161 41.3506 115.161 40.424C115.161 39.3198 115.547 38.4757 116.319 37.8919C117.091 37.308 118.2 37.0161 119.646 37.0161H120.767V36.5211C120.767 35.8992 120.632 35.4676 120.362 35.2265C120.093 34.9853 119.646 34.8647 119.021 34.8647C118.334 34.8647 117.477 35.0424 116.447 35.3978L115.859 33.5891C117.072 33.0941 118.273 32.8466 119.462 32.8466C120.785 32.8466 121.759 33.1449 122.384 33.7414C123.009 34.3253 123.322 35.2011 123.322 36.3688V40.4431ZM119.039 41.6044C119.774 41.6044 120.35 41.23 120.767 40.4812V38.5582H119.903C118.494 38.5582 117.789 39.104 117.789 40.1956C117.789 40.6398 117.893 40.9889 118.102 41.2427C118.322 41.4839 118.635 41.6044 119.039 41.6044Z" fill="#202E46"/>
<path d="M131.37 32.8466C132.228 32.8466 132.896 33.1195 133.374 33.6653C133.852 34.1984 134.091 34.9409 134.091 35.8928V43.2418H131.48V36.3497C131.48 35.804 131.389 35.4232 131.205 35.2074C131.033 34.979 130.77 34.8647 130.414 34.8647C130.047 34.8647 129.71 34.9853 129.403 35.2265C129.109 35.4549 128.821 35.804 128.54 36.2736V43.2418H125.929V33.1512H128.19L128.392 34.4268C128.797 33.9064 129.238 33.513 129.716 33.2464C130.206 32.9799 130.757 32.8466 131.37 32.8466Z" fill="#202E46"/>
<path d="M141.484 43.2608C141.092 44.5428 140.473 45.5328 139.628 46.2309C138.794 46.929 137.661 47.3288 136.227 47.4303L135.951 45.4883C136.883 45.3614 137.563 45.133 137.992 44.803C138.433 44.4729 138.794 43.9526 139.076 43.2418H138.175L135.143 33.1512H137.918L139.867 41.4902L141.925 33.1512H144.627L141.484 43.2608Z" fill="#202E46"/>
<path d="M114.247 11.4872C113.953 11.1826 113.573 11.0303 113.107 11.0303C112.642 11.0303 112.262 11.1826 111.968 11.4872C111.674 11.7792 111.527 12.1536 111.527 12.6105C111.527 13.0675 111.674 13.4482 111.968 13.7528C112.262 14.0448 112.642 14.1907 113.107 14.1907C113.573 14.1907 113.953 14.0448 114.247 13.7528C114.553 13.4482 114.706 13.0675 114.706 12.6105C114.706 12.1536 114.553 11.7792 114.247 11.4872Z" fill="#FFD600"/>
<defs>
<linearGradient id="paint0_linear" x1="0" y1="0" x2="45.7422" y2="44.4827" gradientUnits="userSpaceOnUse">
<stop stop-color="#004CDE"/>
<stop offset="0.307616" stop-color="#0057FF"/>
</linearGradient>
<linearGradient id="paint1_linear" x1="6.06824" y1="6.24001" x2="51.8104" y2="50.7227" gradientUnits="userSpaceOnUse">
<stop offset="0.120955" stop-color="#0037A3"/>
<stop offset="0.484375" stop-color="#0056FF"/>
</linearGradient>
</defs>
</svg>
